<?xml version="1.0" standalone="no"?>
<!DOCTYPE svg PUBLIC "-//W3C//DTD SVG 20010904//EN"
 "http://www.w3.org/TR/2001/REC-SVG-20010904/DTD/svg10.dtd">
<svg version="1.0" xmlns="http://www.w3.org/2000/svg"
 width="1152.000000pt" height="1152.000000pt" viewBox="0 0 1152.000000 1152.000000"
 preserveAspectRatio="xMidYMid meet">

<g transform="translate(0.000000,1152.000000) scale(0.100000,-0.100000)"
fill="#000000" stroke="none">
<path d="M5542 9528 c-17 -17 -10 -215 9 -232 16 -15 49 -15 64 0 15 15 16 30
10 103 -4 47 -12 97 -18 111 -14 28 -46 37 -65 18z"/>
<path d="M5926 9525 c-20 -21 -31 -101 -17 -131 12 -27 51 -33 70 -10 18 22
19 135 1 146 -21 14 -36 12 -54 -5z"/>
<path d="M5164 9456 c-3 -8 -4 -25 -2 -38 2 -18 9 -23 32 -23 36 0 56 27 40
53 -14 22 -62 28 -70 8z"/>
<path d="M6292 9458 c-14 -18 -92 -318 -92 -356 0 -34 21 -52 51 -45 23 6 38
47 84 230 33 127 37 154 26 167 -16 19 -54 21 -69 4z"/>
<path d="M4807 9334 c-14 -15 -6 -70 16 -109 27 -48 68 -60 87 -25 17 32 -35
134 -70 138 -14 2 -29 0 -33 -4z"/>
<path d="M6601 9218 c-74 -157 -73 -153 -52 -179 30 -37 58 -18 96 64 18 40
44 96 59 126 14 30 26 62 26 71 0 23 -20 40 -48 40 -20 0 -31 -17 -81 -122z"/>
<path d="M5899 9264 c-18 -22 -25 -120 -9 -139 32 -38 69 -9 81 63 11 73 -34
122 -72 76z"/>
<path d="M5575 9187 c-15 -12 -17 -23 -13 -75 7 -75 12 -82 49 -82 21 0 32 6
38 23 13 33 -3 118 -25 134 -22 16 -26 16 -49 0z"/>
<path d="M4474 9136 c-3 -8 -4 -25 -2 -38 2 -19 9 -23 38 -23 33 0 35 2 35 35
0 32 -3 35 -33 38 -21 2 -34 -2 -38 -12z"/>
<path d="M6963 9113 c-38 -49 -45 -70 -33 -94 24 -43 81 -14 115 57 35 74 -31
103 -82 37z"/>
<path d="M5250 9121 c-13 -24 5 -114 27 -136 19 -19 47 -19 64 1 10 12 10 27
1 71 -6 30 -17 61 -23 69 -17 20 -57 17 -69 -5z"/>
<path d="M5880 9012 c-18 -15 -21 -26 -18 -82 3 -64 4 -65 33 -68 19 -3 33 2
42 14 14 19 18 112 5 130 -14 20 -41 23 -62 6z"/>
<path d="M6166 8964 c-34 -34 -8 -82 39 -70 24 6 30 21 25 56 -4 31 -40 39
-64 14z"/>
<path d="M4987 8943 c-17 -16 -4 -69 33 -144 42 -82 61 -100 89 -82 24 15 25
49 3 96 -11 23 -30 63 -42 90 -18 39 -27 47 -49 47 -15 0 -31 -3 -34 -7z"/>
<path d="M5592 8928 c-17 -17 -15 -109 4 -136 17 -24 43 -29 62 -10 15 15 16
112 2 139 -12 21 -50 25 -68 7z"/>
<path d="M4325 8884 c-80 -29 -145 -123 -145 -209 0 -50 49 -136 97 -169 50
-35 133 -46 193 -26 44 15 111 80 130 127 7 20 11 58 8 93 -6 80 -43 135 -117
173 -61 30 -105 33 -166 11z m166 -100 c62 -59 61 -155 -1 -208 -87 -72 -217
-20 -227 91 -8 95 55 158 150 150 36 -3 56 -12 78 -33z"/>
<path d="M4367 8713 c-4 -3 -7 -19 -7 -34 0 -22 6 -30 26 -35 35 -9 59 15 50
50 -5 20 -13 26 -35 26 -15 0 -31 -3 -34 -7z"/>
<path d="M7053 8884 c-52 -19 -118 -89 -132 -140 -15 -53 -14 -84 4 -135 63
-178 316 -187 396 -14 78 167 -94 353 -268 289z m168 -101 c96 -96 17 -258
-116 -238 -64 9 -115 68 -115 131 0 93 57 148 148 141 43 -3 59 -10 83 -34z"/>
<path d="M7090 8701 c-16 -31 4 -63 37 -59 34 4 52 32 37 56 -16 26 -60 28
-74 3z"/>
<path d="M6443 8863 c-30 -27 -125 -240 -121 -271 2 -22 9 -28 35 -30 32 -3
33 -3 93 124 64 136 71 167 41 184 -25 13 -25 13 -48 -7z"/>
<path d="M4676 8854 c-9 -8 -16 -20 -16 -27 0 -18 102 -167 122 -178 12 -6 25
-6 38 1 34 18 24 59 -36 143 -56 80 -78 92 -108 61z"/>
<path d="M6793 8862 c-23 -15 -113 -157 -113 -179 0 -29 33 -47 59 -33 28 14
121 150 121 175 0 37 -36 57 -67 37z"/>
<path d="M5348 8799 c-22 -12 -23 -42 -2 -101 16 -49 30 -60 62 -51 28 7 33
35 17 95 -16 64 -38 80 -77 57z"/>
<path d="M6118 8793 c-8 -10 -25 -57 -37 -105 -18 -67 -20 -91 -11 -107 12
-23 52 -28 68 -8 13 16 52 156 52 188 0 46 -43 65 -72 32z"/>
<path d="M5610 8661 c-16 -31 4 -63 37 -59 34 4 52 32 37 56 -16 26 -60 28
-74 3z"/>
<path d="M5847 8673 c-4 -3 -7 -19 -7 -34 0 -22 6 -30 26 -35 17 -4 31 -1 41
9 10 10 13 24 9 41 -5 20 -13 26 -35 26 -15 0 -31 -3 -34 -7z"/>
<path d="M5130 8621 c-16 -31 4 -63 37 -59 34 4 52 32 37 56 -16 26 -60 28
-74 3z"/>
<path d="M3937 8603 c-4 -3 -7 -19 -7 -34 0 -25 15 -38 120 -108 67 -45 127
-81 133 -81 21 0 37 22 37 50 0 22 -17 38 -114 103 -104 70 -150 89 -169 70z"/>
<path d="M7345 8481 c-148 -104 -181 -131 -183 -153 -4 -33 25 -52 60 -39 13
5 60 35 105 68 45 32 121 85 168 117 95 66 111 85 95 116 -21 39 -58 23 -245
-109z"/>
<path d="M6592 8578 c-21 -21 -14 -57 14 -70 23 -11 29 -10 45 10 35 44 -20
99 -59 60z"/>
<path d="M5412 8548 c-17 -17 -15 -38 10 -134 22 -84 22 -84 55 -84 27 0 34 5
39 27 9 32 -22 168 -43 188 -18 18 -45 19 -61 3z"/>
<path d="M5632 8498 c-14 -14 -16 -136 -3 -156 5 -8 22 -12 42 -10 l34 3 3 67
c2 37 -2 77 -8 88 -12 22 -49 27 -68 8z"/>
<path d="M5829 8494 c-8 -9 -13 -44 -13 -87 -1 -72 -1 -72 27 -75 16 -2 34 1
41 7 16 14 27 117 15 149 -10 26 -50 30 -70 6z"/>
<path d="M4610 8465 c-7 -9 -10 -25 -6 -40 6 -22 11 -26 39 -23 27 3 33 8 35
32 5 43 -41 64 -68 31z"/>
<path d="M6038 8468 c-9 -7 -23 -37 -31 -65 -12 -43 -12 -54 -1 -63 22 -19 68
-8 80 20 24 53 25 79 4 100 -23 23 -31 24 -52 8z"/>
<path d="M6495 8434 c-12 -13 -13 -48 -1 -60 0 -1 11 -4 22 -8 40 -12 71 43
42 72 -17 17 -44 15 -63 -4z"/>
<path d="M6791 8406 c-7 -8 -11 -25 -9 -38 2 -19 9 -23 38 -23 33 0 35 2 35
35 0 30 -4 35 -26 38 -14 2 -31 -4 -38 -12z"/>
<path d="M5245 8394 c-9 -9 -15 -26 -13 -38 4 -28 56 -35 75 -10 17 23 16 29
-3 48 -20 20 -38 20 -59 0z"/>
<path d="M6214 8385 c-22 -33 -4 -57 40 -53 24 2 32 9 34 26 7 51 -46 70 -74
27z"/>
<path d="M4730 8345 c-7 -9 -10 -25 -6 -40 6 -22 11 -26 39 -23 27 3 33 8 35
32 5 43 -41 64 -68 31z"/>
<path d="M4362 8308 c-27 -27 -6 -68 35 -68 29 0 48 33 33 60 -12 22 -49 27
-68 8z"/>
<path d="M3744 8266 c-12 -32 3 -52 58 -79 47 -24 60 -27 78 -17 35 19 23 60
-25 87 -46 26 -103 30 -111 9z"/>
<path d="M7707 8273 c-12 -12 -7 -50 8 -63 35 -29 85 14 63 54 -9 16 -58 22
-71 9z"/>
<path d="M6967 8217 c-79 -53 -100 -84 -77 -112 25 -30 64 -15 173 68 53 41
50 97 -6 97 -7 0 -47 -24 -90 -53z"/>
<path d="M4874 8206 l-34 -34 0 -846 0 -845 31 -36 31 -35 258 0 258 0 6 33
c4 17 10 53 15 79 4 26 9 49 12 51 2 2 27 11 55 20 27 9 57 19 65 22 12 5 16
-2 17 -30 1 -28 -2 -35 -17 -35 -26 0 -31 -9 -19 -36 17 -36 44 -30 59 13 l12
37 21 -25 c12 -14 34 -31 50 -37 21 -10 26 -16 18 -24 -17 -17 3 -47 28 -41
12 3 22 -1 26 -11 6 -14 49 -16 424 -16 l417 0 26 24 c14 13 29 35 32 48 3 12
4 400 3 861 l-3 839 -33 29 -32 29 -846 0 -846 0 -34 -34z m1209 -361 c32 -13
38 -20 33 -38 -3 -12 -1 -29 4 -37 8 -12 10 -12 16 3 9 24 23 21 17 -3 -7 -27
-13 -30 -53 -21 -31 6 -37 4 -55 -24 -19 -27 -27 -30 -79 -33 l-58 -3 16 23
c21 30 20 50 -4 78 -11 13 -20 27 -20 32 0 5 -16 16 -35 24 -49 20 -44 26 18
19 28 -3 66 -2 82 3 31 9 55 5 118 -23z m-325 9 c-4 -24 -44 -36 -58 -19 -10
12 -8 17 11 24 36 15 51 13 47 -5z m-143 -38 c6 -7 16 -15 24 -17 7 -3 19 -20
25 -39 8 -25 18 -36 35 -38 13 -2 27 1 31 8 5 8 18 1 40 -21 l32 -33 -22 -18
c-12 -10 -28 -18 -36 -18 -17 0 -18 -12 -1 -29 17 -17 -34 -61 -72 -61 -17 0
-36 -10 -49 -25 -12 -14 -29 -25 -37 -25 -9 0 -25 -16 -37 -36 -15 -26 -26
-34 -39 -31 -13 4 -27 -5 -43 -25 l-23 -30 -6 40 c-2 23 -12 55 -20 72 -15 30
-15 31 9 40 13 5 24 17 24 26 0 9 8 23 17 29 17 13 17 14 0 32 -9 11 -17 24
-17 30 0 18 47 54 62 48 21 -8 31 21 16 45 -9 14 -9 22 1 34 8 10 9 16 3 16
-12 0 -42 28 -42 39 0 12 114 0 125 -13z m-348 -37 c-8 -5 -18 -20 -21 -34 -4
-16 -11 -22 -21 -19 -35 14 0 76 37 66 17 -4 18 -6 5 -13z m1147 -14 c-7 -16
-24 -21 -24 -6 0 8 7 13 27 20 1 1 0 -6 -3 -14z m-416 -257 c-2 -6 -10 -14
-16 -16 -7 -2 -10 2 -6 12 7 18 28 22 22 4z m-50 -40 c-3 -7 -13 -15 -24 -17
-16 -3 -17 -1 -5 13 16 19 34 21 29 4z m-32 -78 c19 0 18 -46 -2 -54 -26 -10
-34 -7 -34 11 0 12 -9 5 -27 -20 -14 -20 -30 -37 -35 -37 -4 0 -8 -7 -8 -15 0
-23 -28 -6 -35 22 -7 31 18 63 52 63 12 0 23 5 23 11 0 6 10 25 23 42 l22 32
3 -27 c2 -16 9 -28 18 -28z m-46 -124 c0 -3 -4 -8 -10 -11 -5 -3 -10 -1 -10 4
0 6 5 11 10 11 6 0 10 -2 10 -4z m-10 -446 c0 -5 -7 -10 -16 -10 -8 0 -12 5
-9 10 3 6 10 10 16 10 5 0 9 -4 9 -10z m-60 -30 c0 -5 -5 -10 -11 -10 -5 0 -7
5 -4 10 3 6 8 10 11 10 2 0 4 -4 4 -10z m77 -46 c-3 -3 -12 -4 -19 -1 -8 3 -5
6 6 6 11 1 17 -2 13 -5z m-27 -69 c14 -7 38 -18 54 -24 24 -10 27 -15 21 -39
-3 -15 -14 -35 -22 -45 -15 -16 -18 -15 -41 18 -14 19 -33 35 -42 35 -20 0
-45 26 -55 59 -6 21 -4 23 13 19 15 -4 22 0 27 16 7 21 7 21 13 -2 4 -13 18
-29 32 -37z m18 36 c3 -8 -1 -12 -9 -9 -7 2 -15 10 -17 17 -3 8 1 12 9 9 7 -2
15 -10 17 -17z m116 -227 c20 -8 21 -24 2 -24 -8 0 -16 7 -20 15 -6 17 -4 18
18 9z"/>
<path d="M7545 8202 c-6 -5 -58 -30 -118 -57 -84 -38 -109 -54 -113 -72 -7
-28 11 -53 38 -53 31 0 267 117 275 136 3 9 2 24 -4 33 -11 18 -63 27 -78 13z"/>
<path d="M4570 8155 c-21 -26 -2 -59 62 -104 103 -73 148 -80 148 -22 0 26
-11 37 -79 85 -82 58 -110 67 -131 41z"/>
<path d="M4063 8133 c-7 -2 -13 -18 -13 -35 0 -27 6 -32 96 -74 96 -45 126
-49 138 -17 13 33 -7 52 -90 92 -82 39 -104 45 -131 34z"/>
<path d="M7164 8016 c-3 -8 -4 -25 -2 -38 2 -18 9 -23 32 -23 36 0 56 27 40
53 -14 22 -62 28 -70 8z"/>
<path d="M4372 7978 c-33 -33 -9 -60 92 -106 85 -40 123 -42 132 -8 9 36 0 45
-91 87 -88 41 -114 46 -133 27z"/>
<path d="M3614 7907 c-16 -44 22 -76 103 -85 38 -4 43 -2 54 22 19 41 -10 64
-88 72 -52 6 -64 4 -69 -9z"/>
<path d="M7790 7907 c-29 -10 -35 -17 -35 -41 0 -43 22 -52 89 -37 63 14 84
37 66 71 -12 23 -63 26 -120 7z"/>
<path d="M6813 7856 c-61 -29 -69 -55 -27 -83 26 -16 28 -16 83 13 49 25 56
33 56 59 0 26 -4 30 -30 33 -16 1 -54 -9 -82 -22z"/>
<path d="M4686 7835 c-20 -21 -20 -39 0 -59 19 -19 25 -20 48 -3 25 19 18 71
-10 75 -12 2 -29 -4 -38 -13z"/>
<path d="M7341 7768 c-13 -33 4 -60 36 -56 56 7 55 69 -1 76 -20 3 -28 -2 -35
-20z"/>
<path d="M4280 7730 c-16 -30 -3 -57 33 -69 68 -22 113 -18 120 10 9 33 -2 47
-51 63 -61 21 -89 20 -102 -4z"/>
<path d="M7182 7738 c-17 -17 -15 -53 3 -68 12 -10 21 -10 40 -2 40 19 29 82
-15 82 -9 0 -21 -5 -28 -12z"/>
<path d="M6880 7666 c-113 -32 -115 -33 -115 -62 0 -21 7 -32 25 -41 21 -10
44 -6 150 23 68 18 130 40 138 48 9 9 12 24 8 40 -6 23 -11 26 -49 25 -23 0
-94 -15 -157 -33z"/>
<path d="M4530 7665 c-7 -8 -10 -25 -6 -40 5 -19 17 -28 57 -39 76 -23 116
-29 144 -22 20 5 25 13 25 39 0 33 0 33 -84 55 -99 26 -119 27 -136 7z"/>
<path d="M3552 7538 c-28 -28 -3 -72 39 -66 30 4 47 33 33 56 -14 21 -55 27
-72 10z"/>
<path d="M7901 7528 c-13 -33 4 -60 36 -56 56 7 55 69 -1 76 -20 3 -28 -2 -35
-20z"/>
<path d="M3726 7524 c-19 -19 -20 -35 -3 -56 19 -24 194 -41 225 -22 25 16 29
46 8 63 -13 11 -131 30 -188 31 -15 0 -34 -7 -42 -16z"/>
<path d="M7685 7533 c-47 -12 -63 -63 -25 -83 22 -12 117 -3 138 13 19 15 14
55 -7 67 -20 10 -70 12 -106 3z"/>
<path d="M7482 7498 c-27 -27 -6 -68 35 -68 29 0 48 33 33 60 -12 22 -49 27
-68 8z"/>
<path d="M4152 7488 c-18 -18 -14 -56 7 -68 27 -14 124 -13 139 2 19 19 14 45
-10 62 -27 19 -119 21 -136 4z"/>
<path d="M7200 7490 c-57 -7 -70 -15 -70 -44 0 -33 19 -46 66 -46 77 0 121 31
98 68 -14 22 -43 29 -94 22z"/>
<path d="M4416 7467 c-38 -27 2 -95 42 -71 24 16 28 55 6 71 -10 7 -21 13 -24
13 -3 0 -14 -6 -24 -13z"/>
<path d="M4582 7448 c-19 -19 -14 -56 8 -68 11 -6 51 -10 88 -8 l67 3 3 34 c2
20 -2 37 -10 42 -20 13 -142 11 -156 -3z"/>
<path d="M6778 7449 c-21 -12 -24 -49 -6 -67 14 -14 132 -16 157 -2 25 13 33
37 21 61 -9 16 -22 19 -83 19 -40 0 -80 -5 -89 -11z"/>
<path d="M4615 7263 c-31 -8 -45 -23 -45 -49 0 -32 30 -43 102 -36 64 5 81 18
76 59 -3 27 -6 28 -58 30 -30 0 -64 -1 -75 -4z"/>
<path d="M6765 7250 c-8 -26 2 -57 20 -64 8 -3 82 -10 165 -17 160 -12 180 -8
180 32 0 34 -40 47 -173 58 -177 15 -184 15 -192 -9z"/>
<path d="M4247 7230 c-42 -4 -84 -13 -92 -20 -23 -19 -19 -59 8 -69 22 -9 178
2 209 14 50 20 19 90 -37 83 -5 0 -45 -4 -88 -8z"/>
<path d="M7233 7223 c-7 -2 -13 -17 -13 -33 0 -36 14 -46 78 -53 44 -5 56 -3
72 13 25 25 14 62 -21 71 -28 8 -99 10 -116 2z"/>
<path d="M3982 7198 c-34 -34 6 -90 48 -68 35 19 20 80 -20 80 -9 0 -21 -5
-28 -12z"/>
<path d="M7573 7193 c-20 -8 -16 -61 6 -72 28 -15 362 -41 383 -30 22 12 23
52 3 69 -8 7 -82 18 -172 26 -169 14 -201 15 -220 7z"/>
<path d="M3583 7169 c-49 -14 -56 -71 -10 -83 27 -7 108 4 125 17 19 15 14 55
-7 67 -23 12 -64 12 -108 -1z"/>
<path d="M4590 7051 c-69 -20 -131 -40 -138 -44 -7 -5 -12 -21 -12 -37 0 -23
6 -31 24 -36 24 -6 251 51 274 69 23 18 8 91 -17 86 -4 -1 -62 -18 -131 -38z"/>
<path d="M6771 7071 c-15 -28 -14 -46 7 -63 21 -19 150 -51 188 -46 26 3 29 7
29 38 l0 35 -75 21 c-130 37 -137 38 -149 15z"/>
<path d="M7098 6984 c-5 -4 -8 -20 -8 -35 0 -37 28 -52 100 -53 55 -1 55 -1
58 31 2 23 -2 34 -16 42 -26 14 -125 25 -134 15z"/>
<path d="M4282 6958 c-27 -27 -6 -68 35 -68 29 0 48 33 33 60 -12 22 -49 27
-68 8z"/>
<path d="M4030 6885 c-19 -23 3 -65 34 -65 32 0 50 24 42 55 -5 19 -13 25 -35
25 -16 0 -34 -7 -41 -15z"/>
<path d="M4612 6834 c-92 -43 -93 -44 -90 -76 5 -49 43 -49 146 1 74 36 82 43
82 69 0 29 -16 53 -34 51 -6 0 -53 -20 -104 -45z"/>
<path d="M6776 6864 c-34 -34 -9 -78 41 -72 23 2 29 9 31 33 6 46 -40 71 -72
39z"/>
<path d="M7507 6873 c-12 -11 -7 -50 7 -62 21 -17 145 -51 188 -51 32 0 39 4
44 26 9 37 -11 52 -96 75 -75 19 -131 24 -143 12z"/>
<path d="M3792 6831 c-8 -5 -12 -21 -10 -37 3 -26 7 -29 38 -29 29 0 36 4 38
23 6 41 -31 65 -66 43z"/>
<path d="M3626 6787 c-38 -27 2 -95 42 -71 24 16 28 55 6 71 -10 7 -21 13 -24
13 -3 0 -14 -6 -24 -13z"/>
<path d="M7846 6785 c-22 -22 -20 -52 4 -65 40 -21 67 1 60 50 -2 18 0 16 -26
24 -14 4 -28 1 -38 -9z"/>
<path d="M7004 6735 c-4 -18 -2 -32 9 -42 10 -11 24 -13 42 -9 22 6 26 11 23
39 -3 28 -7 32 -35 35 -28 3 -33 -1 -39 -23z"/>
<path d="M4260 6667 c-117 -58 -125 -64 -125 -91 0 -55 23 -55 147 3 62 29
123 59 136 67 36 24 24 85 -17 83 -9 0 -72 -28 -141 -62z"/>
<path d="M7170 6676 c-22 -28 -7 -60 40 -84 51 -26 88 -25 104 1 16 24 -1 48
-55 74 -52 26 -72 28 -89 9z"/>
<path d="M6752 6638 c-25 -25 -13 -56 36 -91 174 -128 190 -137 220 -126 22 8
30 42 14 65 -14 20 -226 164 -242 164 -9 0 -21 -5 -28 -12z"/>
<path d="M3958 6523 c-61 -27 -74 -49 -51 -82 18 -27 33 -26 93 4 64 33 77 70
31 94 -12 7 -33 2 -73 -16z"/>
<path d="M4572 6538 c-35 -35 15 -99 53 -68 30 25 12 80 -25 80 -9 0 -21 -5
-28 -12z"/>
<path d="M7474 6526 c-9 -23 -1 -48 19 -60 25 -16 52 4 52 40 0 25 -4 29 -33
32 -22 2 -34 -2 -38 -12z"/>
<path d="M3758 6429 c-22 -12 -23 -52 -3 -69 8 -7 25 -10 40 -6 20 5 25 13 25
36 0 19 -7 33 -19 40 -23 12 -22 12 -43 -1z"/>
<path d="M7718 6429 c-22 -12 -23 -52 -3 -69 8 -7 25 -10 39 -6 32 8 40 42 15
67 -22 22 -27 22 -51 8z"/>
<path d="M6730 6345 c-7 -9 -10 -25 -6 -40 6 -22 11 -26 39 -23 27 3 33 8 35
32 5 43 -41 64 -68 31z"/>
<path d="M7015 6331 c-71 -24 -114 -52 -172 -114 -83 -88 -113 -165 -113 -292
0 -164 89 -308 234 -378 265 -130 578 44 611 339 22 196 -100 380 -297 449
-59 20 -199 19 -263 -4z m233 -111 c22 -21 42 -77 42 -121 0 -22 6 -28 33 -33
19 -3 45 -18 58 -32 22 -23 24 -34 24 -112 0 -114 -28 -176 -95 -209 -41 -21
-58 -23 -212 -23 -217 0 -208 -7 -208 165 0 115 2 126 22 145 16 15 35 20 74
20 95 0 118 24 127 128 2 31 11 60 22 72 24 27 84 27 113 0z"/>
<path d="M7177 6173 c-4 -3 -7 -26 -7 -50 0 -98 -68 -162 -172 -163 l-48 0 0
-105 0 -105 156 0 c212 0 232 12 242 156 5 77 -8 104 -52 104 -34 0 -66 40
-66 82 0 65 -28 107 -53 81z m48 -285 c-37 -35 -70 -64 -74 -66 -10 -3 -71 55
-71 69 0 7 8 9 20 5 11 -3 28 -8 38 -11 10 -4 41 11 82 40 36 25 66 41 68 36
2 -6 -27 -39 -63 -73z"/>
<path d="M5239 6299 c-44 -83 -229 -486 -229 -500 0 -38 62 -52 82 -19 10 19
121 253 183 388 45 99 46 104 31 127 -20 31 -51 32 -67 4z"/>
<path d="M5445 6308 c-3 -7 -50 -183 -105 -390 -109 -408 -110 -418 -51 -418
18 0 32 7 36 18 4 9 51 181 105 382 85 314 97 368 87 390 -13 28 -64 41 -72
18z"/>
<path d="M5633 6308 c-11 -14 -34 -313 -26 -335 8 -21 52 -28 70 -10 22 21 42
319 23 341 -15 19 -54 21 -67 4z"/>
<path d="M5823 6313 c-14 -5 -18 -88 -7 -142 8 -38 36 -56 63 -41 27 14 31 35
22 108 -9 74 -30 95 -78 75z"/>
<path d="M6006 6307 c-17 -12 -16 -17 3 -95 34 -130 36 -134 73 -130 28 3 34
7 36 32 5 38 -27 167 -46 189 -18 20 -41 22 -66 4z"/>
<path d="M6216 6304 c-21 -21 -20 -29 12 -94 21 -43 33 -56 53 -58 41 -5 55
20 39 68 -30 91 -68 121 -104 84z"/>
<path d="M4233 6297 c-85 -48 -101 -67 -88 -107 9 -29 49 -25 100 10 43 30 62
60 50 80 -13 21 -41 29 -62 17z"/>
<path d="M4641 6256 c-36 -37 -42 -49 -37 -70 10 -41 53 -35 100 13 29 30 37
45 34 67 -5 48 -44 44 -97 -10z"/>
<path d="M4964 6256 c-3 -8 -4 -25 -2 -38 2 -18 9 -23 32 -23 36 0 56 27 40
53 -14 22 -62 28 -70 8z"/>
<path d="M4326 6155 c-87 -31 -155 -139 -143 -227 8 -62 55 -129 112 -160 144
-79 315 23 315 187 0 149 -144 250 -284 200z m163 -101 c111 -99 19 -265 -128
-233 -54 12 -93 58 -98 116 -9 92 47 153 139 153 41 0 54 -5 87 -36z"/>
<path d="M4376 5987 c-38 -27 2 -95 42 -71 24 16 28 55 6 71 -10 7 -21 13 -24
13 -3 0 -14 -6 -24 -13z"/>
<path d="M4872 6118 c-29 -29 -3 -72 40 -66 19 2 23 9 23 38 0 30 -4 35 -25
38 -14 2 -31 -3 -38 -10z"/>
<path d="M3942 6098 c-34 -34 6 -90 48 -68 35 19 20 80 -20 80 -9 0 -21 -5
-28 -12z"/>
<path d="M6332 6071 c-8 -5 -12 -21 -10 -37 2 -24 8 -29 35 -32 28 -3 33 1 39
23 10 42 -27 70 -64 46z"/>
<path d="M5856 6027 c-38 -27 2 -95 42 -71 24 16 28 55 6 71 -10 7 -21 13 -24
13 -3 0 -14 -6 -24 -13z"/>
<path d="M4762 5970 c-11 -11 -28 -37 -38 -56 -22 -41 -12 -67 29 -72 21 -3
32 5 57 40 40 54 39 101 -2 106 -17 2 -33 -4 -46 -18z"/>
<path d="M6097 5983 c-4 -3 -7 -18 -7 -32 0 -35 59 -263 72 -278 16 -20 56
-15 68 7 8 15 3 49 -20 142 -40 161 -43 168 -78 168 -16 0 -32 -3 -35 -7z"/>
<path d="M5590 5834 c-6 -15 -10 -51 -8 -78 3 -49 4 -51 35 -54 42 -4 55 21
51 96 -3 56 -3 57 -36 60 -27 3 -34 -1 -42 -24z"/>
<path d="M5856 5843 c-9 -21 3 -226 15 -275 9 -36 27 -48 61 -40 9 2 18 12 21
22 8 30 -14 284 -25 297 -15 19 -65 16 -72 -4z"/>
<path d="M6476 5754 c-21 -20 -20 -24 8 -87 25 -58 46 -73 77 -57 28 16 28 41
-2 106 -24 54 -54 68 -83 38z"/>
<path d="M4579 5698 c-31 -25 -109 -150 -109 -173 0 -31 32 -50 59 -35 24 13
121 156 121 179 0 36 -41 53 -71 29z"/>
<path d="M4946 5668 c-56 -88 -56 -133 0 -133 23 0 33 8 51 40 27 47 30 100 7
109 -28 11 -43 6 -58 -16z"/>
<path d="M5582 5598 c-34 -34 6 -90 48 -68 35 19 20 80 -20 80 -9 0 -21 -5
-28 -12z"/>
<path d="M6586 5524 c-19 -18 -21 -45 -4 -62 25 -25 78 -2 78 33 0 7 -7 21
-16 29 -8 9 -22 16 -29 16 -7 0 -21 -7 -29 -16z"/>
<path d="M5562 5428 c-27 -27 -6 -68 35 -68 29 0 48 33 33 60 -12 22 -49 27
-68 8z"/>
<path d="M5902 5428 c-15 -15 -16 -112 -2 -139 12 -21 50 -25 68 -7 17 17 15
109 -4 136 -17 24 -43 29 -62 10z"/>
<path d="M5218 5409 c-22 -12 -23 -52 -3 -69 8 -7 25 -10 40 -6 20 5 25 13 25
36 0 19 -7 33 -19 40 -23 12 -22 12 -43 -1z"/>
<path d="M6255 5406 c-18 -13 -19 -18 -7 -77 28 -141 46 -172 94 -161 29 6 30
38 7 132 -15 64 -28 95 -42 105 -26 18 -29 18 -52 1z"/>
<path d="M4807 5373 c-13 -13 -7 -62 9 -71 40 -22 83 28 54 63 -13 15 -51 20
-63 8z"/>
<path d="M6650 5360 c-12 -22 0 -55 22 -63 39 -13 74 37 48 68 -18 21 -57 19
-70 -5z"/>
<path d="M5172 5238 c-34 -34 6 -90 48 -68 35 19 20 80 -20 80 -9 0 -21 -5
-28 -12z"/>
<path d="M5552 5179 c-18 -7 -23 -15 -20 -35 7 -56 69 -57 76 -1 4 32 -23 49
-56 36z"/>
<path d="M5938 5182 c-23 -5 -34 -48 -18 -67 31 -38 93 1 71 44 -12 22 -29 29
-53 23z"/>
<path d="M5426 3931 c-3 -5 1 -22 9 -37 24 -47 19 -71 -16 -83 -18 -6 -40 -11
-50 -11 -22 0 -35 -18 -21 -32 6 -6 22 -6 48 1 21 6 39 9 41 8 1 -2 -1 -16 -5
-32 -7 -25 -17 -31 -87 -51 -44 -13 -90 -24 -102 -24 -26 0 -40 -17 -25 -32 6
-6 41 -1 105 16 52 14 101 26 108 26 8 -1 -3 -16 -23 -34 -21 -18 -38 -38 -38
-44 0 -5 -29 -40 -65 -77 -36 -37 -65 -69 -65 -71 0 -2 10 -4 21 -4 13 0 40
20 68 51 l46 51 5 -73 5 -74 45 -3 c25 -1 55 -8 68 -14 49 -25 80 31 81 145 1
59 -2 71 -23 92 -24 24 -26 24 -71 11 -43 -13 -45 -13 -34 2 45 60 49 62 125
62 83 0 111 17 72 44 -25 18 -48 21 -48 6 0 -5 -13 -10 -30 -10 -16 0 -30 1
-30 3 0 1 11 24 25 51 14 27 25 55 25 62 0 21 -22 28 -34 12 -6 -8 -26 -17
-44 -20 -30 -4 -32 -3 -32 24 0 51 -36 89 -54 59z m83 -161 c-27 -48 -41 -51
-37 -8 2 25 9 34 28 39 14 4 26 7 28 8 2 1 -7 -17 -19 -39z m27 -186 c7 -29 0
-137 -11 -154 -5 -8 -10 -8 -20 0 -9 7 -27 9 -47 5 l-33 -8 38 42 c47 53 46
75 -6 79 -46 4 -45 20 4 44 48 25 67 23 75 -8z m-92 -85 c-12 -13 -20 -16 -22
-9 -3 7 2 16 9 21 25 16 32 9 13 -12z"/>
<path d="M4327 3886 c5 -45 5 -46 -30 -61 -20 -8 -46 -15 -57 -15 -15 0 -20
-5 -18 -17 4 -19 35 -23 77 -9 17 6 22 5 19 -5 -3 -8 -19 -18 -36 -23 -31 -9
-42 -29 -23 -40 5 -4 21 -2 35 4 16 6 26 6 26 0 0 -10 -82 -49 -122 -57 -30
-6 -38 -30 -14 -39 8 -3 35 3 59 14 l45 20 -15 -36 c-8 -20 -18 -80 -21 -134
-5 -95 -4 -98 17 -98 19 0 21 6 21 50 0 48 1 50 24 44 13 -3 39 -1 59 4 l35
10 6 -40 c10 -59 6 -59 -70 -3 -7 5 -17 6 -21 1 -12 -12 76 -86 103 -86 28 0
28 -2 24 155 -1 93 -5 113 -21 130 -19 19 -21 19 -66 3 l-46 -17 21 21 c15 16
37 22 90 26 48 3 73 9 76 19 8 20 -16 26 -84 21 -44 -3 -60 -1 -60 8 0 7 10
14 22 16 34 5 37 38 4 38 -14 0 -26 4 -26 9 0 13 37 24 51 15 12 -7 29 13 29
35 0 10 -10 12 -39 8 -40 -5 -40 -5 -43 31 -2 25 -9 38 -19 40 -14 3 -16 -4
-12 -42z m81 -309 c2 -26 -1 -47 -5 -47 -4 0 -19 -3 -33 -6 -25 -5 -25 -5 3
11 52 30 24 73 -37 56 -20 -5 -36 -7 -36 -5 0 8 84 44 95 40 6 -1 11 -24 13
-49z m-68 -27 c-37 -25 -50 -31 -50 -20 0 6 10 15 23 20 30 12 45 12 27 0z"/>
<path d="M7615 3871 c-48 -96 -18 -130 35 -38 32 56 35 80 8 85 -12 2 -25 -12
-43 -47z"/>
<path d="M7701 3868 c-32 -54 -35 -78 -14 -85 16 -6 83 88 80 112 -5 40 -35
28 -66 -27z"/>
<path d="M3775 3863 c-38 -53 -41 -76 -9 -81 16 -2 27 10 52 56 17 33 29 62
25 66 -15 15 -35 3 -68 -41z"/>
<path d="M3861 3859 c-30 -54 -31 -79 -2 -79 10 0 27 21 44 55 32 66 33 75 7
75 -13 0 -29 -17 -49 -51z"/>
<path d="M4874 3895 c-4 -9 -4 -18 -1 -22 9 -9 -17 -54 -68 -116 -37 -46 -43
-57 -27 -57 10 0 22 3 26 7 17 17 95 40 98 29 2 -6 1 -87 -2 -181 -3 -93 -2
-174 2 -179 4 -5 14 -4 23 4 11 9 15 32 15 85 l0 73 36 12 c21 7 58 10 85 7
44 -5 49 -4 49 13 0 33 -49 37 -147 13 -21 -5 -23 -2 -23 35 0 27 5 42 16 46
23 9 36 7 29 -4 -11 -18 20 -10 47 13 20 16 25 26 19 36 -8 12 -16 13 -49 3
-57 -17 -62 -16 -62 23 0 31 3 35 35 40 19 3 51 7 70 10 43 7 48 34 8 36 -52
2 -78 -3 -134 -25 l-56 -22 30 49 c24 37 28 52 21 65 -15 23 -33 26 -40 7z"/>
<path d="M6050 3886 c-151 -43 -170 -50 -170 -63 0 -18 27 -16 101 7 103 31
162 42 197 35 42 -8 41 -21 -3 -35 -19 -6 -35 -16 -35 -21 0 -12 62 -12 94 1
33 12 33 34 1 65 -20 21 -33 25 -82 24 -32 0 -78 -6 -103 -13z"/>
<path d="M6720 3885 c-19 -7 -45 -14 -57 -14 -23 -1 -32 -24 -14 -36 5 -3 35
4 66 16 31 11 59 18 63 14 10 -10 -20 -25 -50 -25 -29 0 -40 -24 -15 -33 17
-5 -55 -28 -95 -30 -56 -2 -63 4 -68 58 -4 42 -8 50 -27 53 -25 4 -30 -7 -12
-25 8 -8 9 -31 4 -68 -6 -52 -9 -58 -41 -71 -18 -8 -43 -14 -54 -14 -13 0 -20
-7 -20 -20 0 -22 23 -26 64 -10 14 5 26 8 26 6 0 -3 -20 -39 -45 -80 -63 -108
-60 -132 13 -91 l42 24 0 -59 c0 -40 4 -59 14 -63 23 -9 26 2 26 88 0 77 1 83
30 110 28 26 40 55 23 55 -4 0 -17 -10 -30 -22 l-24 -22 2 43 c3 36 8 45 34
59 16 9 39 15 50 14 11 -2 40 4 65 12 l45 16 -40 -36 c-21 -19 -49 -37 -62
-40 -26 -7 -30 -22 -8 -30 9 -4 33 5 55 20 22 14 42 26 45 26 3 0 5 -13 5 -28
0 -26 -4 -29 -50 -38 -30 -6 -53 -7 -59 -1 -16 16 -25 -17 -29 -110 -4 -89 -4
-93 17 -93 19 0 21 6 21 49 0 44 2 49 20 44 12 -3 20 -14 20 -27 0 -42 23 -60
68 -53 36 6 45 4 74 -23 18 -16 40 -30 49 -30 34 0 41 26 40 137 -2 125 -7
133 -83 133 l-48 0 0 35 c0 29 4 35 21 35 24 0 89 37 89 50 0 14 -36 30 -66
30 l-27 0 21 23 c26 28 28 43 6 51 -24 9 -55 6 -94 -9z m89 -108 c-2 -1 -12
-9 -21 -16 -15 -12 -18 -11 -18 3 0 10 8 16 22 16 12 0 19 -1 17 -3z m52 -232
c3 -44 2 -84 -2 -89 -7 -9 -69 23 -69 36 0 4 5 10 10 13 6 3 10 15 10 26 0 11
7 19 16 19 26 0 11 33 -26 58 l-35 23 45 -3 45 -3 6 -80z m-365 40 c-3 -8 -10
-15 -15 -15 -7 0 -6 10 1 26 12 26 25 16 14 -11z m254 20 c0 -8 7 -15 15 -15
29 0 15 -17 -27 -33 -23 -9 -44 -15 -46 -12 -6 6 38 75 49 75 5 0 9 -7 9 -15z
m-91 -31 c-20 -22 -25 -23 -27 -9 -4 19 13 35 37 35 10 0 7 -8 -10 -26z m101
-53 c0 -16 -30 -33 -46 -27 -16 6 -15 8 2 21 21 16 44 19 44 6z"/>
<path d="M7265 3878 c-27 -11 -70 -26 -95 -33 -27 -7 -46 -19 -48 -29 -5 -23
31 -20 103 9 84 35 125 42 125 22 0 -22 -64 -71 -92 -72 -13 0 -24 -7 -26 -17
-2 -11 3 -18 11 -18 19 0 50 -36 42 -49 -3 -6 -14 -11 -24 -11 -10 0 -67 -11
-126 -24 -59 -14 -113 -22 -120 -20 -7 3 -15 -2 -19 -11 -9 -26 31 -34 94 -19
153 36 202 46 208 39 14 -14 3 -124 -17 -169 -23 -53 -45 -59 -100 -25 -37 22
-52 19 -30 -7 20 -25 96 -56 119 -49 44 14 89 152 74 230 l-6 35 46 0 c26 0
63 -7 83 -15 39 -16 58 -9 47 18 -8 22 -44 31 -120 32 -57 0 -63 2 -78 29 -16
28 -16 29 6 45 40 27 68 63 68 85 0 50 -44 58 -125 24z"/>
<path d="M4087 3883 c-12 -11 -7 -33 7 -33 24 0 38 -26 21 -40 -21 -17 -19
-30 4 -30 21 0 51 25 51 42 0 11 -58 68 -69 68 -4 0 -11 -3 -14 -7z"/>
<path d="M4724 3836 c8 -32 -9 -67 -69 -141 -25 -30 -45 -59 -45 -65 0 -21 29
-9 55 22 l27 32 -6 -94 c-7 -97 0 -128 27 -117 19 7 33 77 17 87 -18 11 -5
158 21 214 23 53 18 78 -16 84 -14 3 -16 -1 -11 -22z"/>
<path d="M6030 3821 c0 -6 5 -13 10 -16 11 -7 12 -90 2 -149 -6 -33 -12 -41
-36 -47 l-28 -8 21 23 c33 35 27 54 -16 58 l-38 3 33 18 c25 13 32 24 30 40
-3 19 -10 22 -50 25 -37 2 -48 0 -48 -12 0 -10 12 -16 38 -18 l37 -3 -37 -22
c-24 -14 -38 -30 -38 -43 0 -16 7 -20 38 -20 l37 -1 -40 -35 c-22 -19 -52 -37
-68 -41 -32 -7 -44 -20 -29 -35 7 -7 36 -2 93 16 46 14 84 24 85 23 1 -1 -7
-22 -19 -46 -22 -47 -93 -106 -140 -116 -34 -8 -26 -25 12 -25 37 0 117 54
148 101 23 34 27 37 51 28 45 -17 105 -55 146 -93 21 -20 42 -36 47 -36 13 0
20 17 13 33 -8 21 -113 93 -175 121 -47 20 -50 24 -35 38 10 10 43 19 91 23
75 7 89 17 63 43 -14 14 -45 16 -50 3 -1 -4 -25 -11 -52 -15 l-49 -8 7 81 c8
88 -2 121 -34 121 -11 0 -20 -4 -20 -9z"/>
<path d="M4098 3735 c-4 -4 -24 -13 -45 -20 -43 -15 -52 -41 -13 -39 14 1 33
5 43 9 17 7 18 4 12 -46 -12 -98 -11 -197 3 -211 20 -20 44 2 69 63 27 68 32
101 16 106 -7 3 -13 -1 -13 -9 0 -7 -11 -35 -24 -63 l-24 -50 -1 55 c0 46 11
121 30 190 4 15 -40 27 -53 15z"/>
</g>
</svg>
